<?xml version="1.0" standalone="no"?>
<!DOCTYPE svg PUBLIC "-//W3C//DTD SVG 1.1//EN" "http://www.w3.org/Graphics/SVG/1.1/DTD/svg11.dtd" >
<svg xmlns="http://www.w3.org/2000/svg">
<metadata>Generated by IcoMoon</metadata>
<defs>
<font id="news-icon" horiz-adv-x="1024">
<font-face units-per-em="1024" ascent="960" descent="-64" />
<missing-glyph horiz-adv-x="1024" />
<glyph unicode="&#x20;" horiz-adv-x="512" d="" />
<glyph unicode="&#xe900;" glyph-name="birthday" horiz-adv-x="1066" d="M396.902 564.531v-88.269c-0.208-1.506-0.326-3.246-0.326-5.013 0-21.377 17.33-38.707 38.707-38.707 1.703 0 3.381 0.11 5.026 0.323l-0.194-0.021h102.4c1.514-0.211 3.264-0.332 5.042-0.332 21.264 0 38.502 17.238 38.502 38.502 0 1.778-0.12 3.528-0.354 5.241l0.022-0.199v115.712c-0.015 0.659-0.024 1.435-0.024 2.214 0 22.205 7.068 42.759 19.076 59.536l-0.21-0.309c3.769 5.107 7.5 10.93 10.847 16.994l0.417 0.823c1.883 3.908 2.983 8.498 2.983 13.344 0 8.317-3.24 15.877-8.528 21.487l0.015-0.016c-4.469 4.112-10.457 6.633-17.035 6.633-5.173 0-9.981-1.559-13.981-4.233l0.091 0.058c-10.048-4.628-23.067-9.695-36.384-14.107l-2.938-0.843c-24.46-7.324-52.566-11.538-81.657-11.538-2.253 0-4.5 0.025-6.741 0.076l0.334-0.006c-45.73-0.79-82.857-36.563-85.798-81.66l-0.014-0.26c-2.253-22.323 6.554-32.973 30.72-35.43zM494.387 739.635l-8.602 26.419c-3.093 7.506-4.889 16.221-4.889 25.355 0 17.613 6.677 33.667 17.638 45.768l-0.052-0.058c7.309 10.212 14.137 21.833 19.898 34.056l0.582 1.374c4.096-13.926 9.421-30.106 14.131-46.694 2.337-7.099 3.684-15.271 3.684-23.757s-1.348-16.657-3.84-24.312l0.156 0.555c-4.506-12.902-10.445-25.19-16.794-40.96 11.059 5.734 20.48 9.83 30.515 15.77 22.423 12.567 37.328 36.181 37.328 63.276 0 9.28-1.749 18.152-4.934 26.304l0.169-0.492c-10.665 32.942-26.669 61.443-47.224 86.006l0.325-0.399c-9.421 11.674-20.48 21.094-29.696 32.154-2.809-10.677-6.098-19.805-10.077-28.552l0.452 1.109c-10.854-19.251-22.528-37.888-34.202-56.73-12.306-17.274-19.675-38.809-19.675-62.064 0-6.217 0.527-12.311 1.538-18.24l-0.090 0.637c4.547-28.268 25.835-50.521 53.206-56.443l0.452-0.082zM924.058 56.013v195.789c-36.497-32.428-84.308-52.839-136.843-54.671l-0.373-0.010h-11.674c-54.449 5.585-102.257 30.331-137.33 67.283l-0.091 0.096c-39.155-39.613-92.673-64.955-152.095-67.567l-0.481-0.017h-11.674c-54.449 5.585-102.257 30.331-137.33 67.283l-0.091 0.096c-39.014-39.285-92.207-64.445-151.257-67.156l-0.5-0.018h-11.674c-43.592 3.78-82.671 20.548-114.020 46.364l0.356-0.284v-187.392h-58.982l12.288-49.152c4.446-17.188 19.808-29.68 38.091-29.696h882.28c18.338 0.040 33.724 12.627 38.034 29.629l0.058 0.272 12.288 49.152zM175.104 236.851c49.152-3.482 99.328 20.48 148.48 70.042h1.024c0.689 0.422 1.497 0.833 2.337 1.184l0.12 0.045 3.482 1.638h11.059l3.482-1.229c1.243-0.684 2.316-1.43 3.303-2.275l-0.026 0.022c0.866-0.471 1.603-0.946 2.301-1.468l-0.049 0.035v-1.024c30.136-36.482 73.107-61.425 121.911-67.889l0.969-0.105c49.152-3.277 99.328 20.48 148.48 70.042h1.024c0.689 0.422 1.497 0.833 2.337 1.184l0.12 0.045 3.482 1.638h11.059l3.482-1.229c1.243-0.684 2.316-1.43 3.303-2.275l-0.026 0.022c0.866-0.471 1.603-0.946 2.301-1.468l-0.049 0.035v-1.024c30.136-36.482 73.107-61.425 121.911-67.889l0.969-0.105c48.333-3.277 97.485 20.48 146.022 67.584v30.106c0 0.061 0.001 0.133 0.001 0.205 0 21.717-17.605 39.322-39.322 39.322 0 0 0 0-0.001 0h-780.288c0 0 0 0-0.001 0-21.717 0-39.322-17.605-39.322-39.322 0-0.072 0-0.144 0.001-0.216v0.011-35.84c29.31-32.457 69.749-54.377 115.257-59.719l0.865-0.083z" />
<glyph unicode="&#xe901;" glyph-name="word_full" horiz-adv-x="1216" d="M1062.912 960v0zM1062.912 960h-931.68c-78.72 0-131.232-47.072-131.232-128.384v-595.872c0-81.344 48.192-128.416 131.232-128.416h345.536l153.088-171.328 153.216 171.328h301.696c78.72 0 131.232 47.072 131.232 128.416v595.872c-4.48 81.312-70.016 128.384-153.088 128.384zM345.536 437.728c-48.192 0-87.392 38.4-87.392 85.6 0 47.072 39.328 85.6 87.392 85.6 48.16 0 87.392-38.4 87.392-85.6 0-47.072-39.232-85.6-87.392-85.6zM608 437.728c-48.192 0-87.392 38.4-87.392 85.6 0 47.072 39.36 85.6 87.392 85.6s87.392-38.4 87.392-85.6c-4.32-47.072-39.36-85.6-87.392-85.6zM865.984 437.728c-48.16 0-87.392 38.4-87.392 85.6 0 47.072 39.36 85.6 87.392 85.6 48.064 0 87.424-38.4 87.424-85.6 0-47.072-39.232-85.6-87.424-85.6z" />
<glyph unicode="&#xe902;" glyph-name="all" d="M543.209 770.693h292.665v-294.389h-292.665v294.389zM543.209 418.512h292.665v-294.39h-292.665v294.39zM188.123 418.512h292.665v-294.39h-292.665v294.39zM341.616 479.212h-14.326c-76.861 0-139.169 62.308-139.169 139.169v14.326c0 76.861 62.308 139.169 139.169 139.169h14.326c76.861 0 139.169-62.308 139.169-139.169v-14.326c0-76.861-62.308-139.169-139.169-139.169zM188.123 630.309h292.665v-151.099h-292.665v151.099zM334.105 771.877h146.682v-292.665h-146.682v292.665z" />
<glyph unicode="&#xe903;" glyph-name="at" d="M628.571 517.143q0 61.714-30.571 96.571t-84.286 34.857q-36 0-70.857-17.429t-62.857-48.286-45.429-78.286-17.429-102.857q0-64 30.571-98.857t86-34.857q54.857 0 100.571 38t70 94.857 24.286 116.286zM950.857 448q0-63.429-21.143-112.571t-56.286-77.143-75.143-42.571-82.857-15.714q-3.429 0-8.857-0.286t-9.429-0.286q-54.286 0-81.143 30.286-16 18.857-18.857 47.429-29.714-37.714-75.143-62.857t-99.143-25.143q-92 0-142.571 54.571t-50.571 154q0 89.714 37.714 165.714t102.286 120.286 140.571 44.286q49.714 0 88.571-20.286t60.571-56.857l1.143 10.857 6.286 32q0.571 3.429 3.143 6.857t5.429 3.429h67.429q2.857 0 7.429-6.286 2.857-2.857 1.714-9.143l-68.571-350.857q-2.857-13.714-2.857-27.429 0-22.286 7.143-29.714t25.429-7.429q16 0.571 32.571 3.143t41.714 13.714 44 28.571 32.571 51.143 13.714 78.286q0 166.857-99.429 266.286t-266.286 99.429q-74.286 0-142-29.143t-116.571-78-78-116.571-29.143-142 29.143-142 78-116.571 116.571-78 142-29.143q130.286 0 231.429 82.286 6.286 5.143 13.714 4.571t12-6.857l23.429-28q4.571-6.857 4-13.714-1.143-7.429-6.857-12.571-58.286-47.429-130-73.143t-147.714-25.714q-89.143 0-170.286 34.857t-140 93.714-93.714 140-34.857 170.286 34.857 170.286 93.714 140 140 93.714 170.286 34.857q196.571 0 317.714-121.143t121.143-317.714z" />
<glyph unicode="&#xe904;" glyph-name="comment" d="M512 191.901c-24.514 0-49.027 1.501-72.54 4.002-65.536-58.031-143.579-99.054-230.126-121.066-18.010-5.003-37.521-8.505-57.031-11.006-11.006-1.001-21.512 7.004-24.013 19.011 0 0.5 0 0.5 0 0.5-2.501 12.507 6.003 20.011 13.507 29.016 31.517 35.52 67.537 65.536 91.050 149.082-103.057 58.532-169.093 149.081-169.093 250.637 0 176.597 200.61 320.176 448.246 320.176s448.246-143.079 448.246-320.176c0-177.098-200.61-320.176-448.246-320.176z" />
<glyph unicode="&#xe905;" glyph-name="favorites" d="M1022.2 566c-4.2 13-15.5 22.5-29.1 24.5l-310.1 45.1-138.7 281c-6.1 12.3-18.6 20.1-32.3 20.1s-26.2-7.8-32.3-20.1l-138.7-281-310.2-45.1c-13.5-2-24.8-11.5-29-24.5s-0.7-27.3 9.1-36.9l224.4-218.8-53-308.9c-2.3-13.5 3.2-27.2 14.3-35.2 11.1-8.1 25.8-9.1 37.9-2.7l277.5 145.8 277.4-145.9c5.3-2.8 11-4.1 16.7-4.1 7.5 0 14.9 2.3 21.2 6.9 11.1 8.1 16.6 21.7 14.3 35.2l-53 308.9 224.4 218.8c9.9 9.6 13.5 23.9 9.2 36.9z" />
<glyph unicode="&#xe906;" glyph-name="favorites_empty" horiz-adv-x="1025" d="M512 917.333c6.4 0 21.333-2.133 27.733-17.067l102.4-217.6c14.933-32 44.8-55.467 81.067-59.733l232.533-36.267c17.067-2.133 23.467-14.933 25.6-21.333s4.267-19.2-6.4-32l-172.8-177.067c-23.467-23.467-34.133-57.6-27.733-91.733l36.267-249.6c2.133-12.8-2.133-21.333-6.4-25.6-6.4-6.4-14.933-10.667-23.467-10.667-4.267 0-10.667 2.133-14.933 4.267l-196.267 108.8c-19.2 10.667-38.4 14.933-57.6 14.933s-38.4-4.267-55.467-14.933l-196.267-108.8c-4.267-2.133-10.667-4.267-14.933-4.267-8.533 0-17.067 4.267-23.467 10.667-4.267 4.267-8.533 12.8-6.4 25.6l40.533 247.467c6.4 34.133-4.267 66.133-27.733 91.733l-177.067 179.2c-12.8 12.8-8.533 27.733-6.4 32 2.133 6.4 8.533 19.2 25.6 21.333l232.533 36.267c36.267 6.4 66.133 27.733 81.067 59.733l102.4 217.6c4.267 14.933 19.2 17.067 25.6 17.067zM512 960c-27.733 0-53.333-14.933-66.133-42.667l-102.4-217.6c-8.533-19.2-27.733-32-49.067-36.267l-230.4-34.133c-59.733-10.667-85.333-83.2-42.667-125.867l172.8-177.067c14.933-14.933 21.333-34.133 17.067-55.467l-40.533-247.467c-6.4-49.067 29.867-87.467 72.533-87.467 12.8 0 23.467 2.133 36.267 8.533l196.267 108.8c10.667 6.4 23.467 8.533 36.267 8.533s25.6-2.133 36.267-8.533l196.267-108.8c10.667-6.4 23.467-8.533 36.267-8.533 42.667 0 81.067 38.4 72.533 87.467l-40.533 247.467c-4.267 19.2 2.133 40.533 17.067 55.467l172.8 179.2c42.667 42.667 17.067 115.2-42.667 125.867l-232.533 36.267c-21.333 4.267-38.4 17.067-49.067 36.267l-100.267 213.333c-12.8 27.733-38.4 42.667-66.133 42.667z" />
<glyph unicode="&#xe907;" glyph-name="praise_empty" d="M223.3 440.3v-400h-100v400h100zM263.3 480.3h-180v-480h180v480zM494.1 855.7c2.5 0 5.2-0.1 8-0.4 35.6-3.5 60.9-15.1 77.2-35.6 11.4-14.3 18.9-33.5 22.2-57.2 2.8-20.1 2.6-42.8-0.5-67.6-6.5-50.3-7.6-90.6-3.2-119.8 8.1-54.6 36.6-66.4 52.9-68.6 4.8-0.6 9.9-1 15.8-1 16.9 0 37.8 2.7 61.9 5.7 28.6 3.6 60.9 7.8 90.6 7.8 44.8 0 63.6-9.6 71.5-17.7 2.7-2.8 10.9-11.2 10.2-36.3-0.6-21.4-2.3-41.8-4-61.5-1.7-19.9-3.3-38.8-3.6-57.2-1.6-103.4-6.6-154.9-17.9-183.7-21.9-55.9-47.6-69.8-83.1-89-4.8-2.6-9.7-5.2-14.7-8.1-29-16.3-64.5-18.7-83.1-18.7-10 0-16.5 0.7-17.3 0.8l-2.1 0.3h-2.5l-409.2 1.8v370.6c36.5 17.5 100.9 57 148 133.8 36.6 59.7 41 131.1 44.9 194.1 2.2 35.7 4.3 69.5 12.3 90.1 2.6 6.6 5.5 11.2 8.7 13.5 3.6 2.6 9.3 3.9 17 3.9zM494.1 895.7c-119.9 0-43.3-200.5-116.9-320.6-60.8-99.3-153.9-128.1-153.9-128.1v-437.2l449-2s8.6-1.1 22.1-1.1c24.9 0 66.6 3.6 102.7 23.9 42.6 24 84.8 39.1 115.4 117.3 14 35.7 19 92.4 20.6 197.7 0.5 34.8 6.4 73.9 7.5 118.3 2 77.2-56.2 95.1-121.7 95.1-56.9 0-119.3-13.5-152.5-13.5-3.9 0-7.4 0.2-10.4 0.6-16.4 2.2-28.4 42.9-15.4 143.7 9.6 74.2 2.1 192-134.7 205.3-4.1 0.4-8.1 0.6-11.8 0.6z" />
<glyph unicode="&#xe908;" glyph-name="show_password" d="M519.37 214.287c-123.115 0-248.037 58.591-381.719 176.22-4.581 4.029-9.163 7.6-12.849 10.733-15.622 12.971-25.732 21.914-26.188 37.125-0.456 15.209 9.197 24.6 23.889 39.353 3.212 3.133 6.898 6.714 11.023 10.743 126.765 128.363 249.863 191.421 377.103 193.211 125.852 1.791 249.863-57.248 378.946-180.249 23.415-22.362 35.825-38.011 35.825-56.801 0-20.124-15.622-34.887-30.313-48.744-128.152-121.211-250.793-181.592-375.733-181.592h0.017zM148.675 440.156c1.86-1.791 4.142-3.581 5.985-5.371 3.669-3.124 8.267-7.144 13.322-11.172 124.010-108.678 236.541-162.802 344.033-164.601 113.443-2.23 228.273 53.236 350.914 168.629 4.142 4.020 14.235 13.42 16.535 17.447-1.387 2.677-5.968 9.382-22.047 25.039-119.884 114.050-232.871 169.059-346.332 167.278-114.374-1.791-226.904-60.381-344.472-179.354-4.142-4.467-8.285-8.048-11.497-11.181-1.843-2.677-4.125-4.924-6.442-6.706v-0.008zM512.016 324.764c69.807 0 126.765 55.457 126.765 123.439s-56.958 123.439-126.765 123.439c-69.824 0-126.784-55.458-126.784-123.439s56.959-123.439 126.784-123.439z" />
<glyph unicode="&#xe909;" glyph-name="close" d="M512 503.69l-417.753 417.753c-7.144 7.087-16.983 11.467-27.845 11.467s-20.701-4.38-27.848-11.469l0.003 0.003c-7.153-7.114-11.58-16.962-11.58-27.845s4.427-20.731 11.579-27.843l417.755-417.755-417.753-417.753c-7.087-7.144-11.467-16.983-11.467-27.845s4.38-20.701 11.469-27.848l-0.003 0.003c7.114-7.153 16.962-11.58 27.845-11.58s20.731 4.427 27.843 11.579l417.755 417.755 417.753-417.753c15.163-15.163 40.29-15.36 55.69 0 7.153 7.114 11.58 16.962 11.58 27.845s-4.427 20.731-11.579 27.843l-417.755 417.755 417.753 417.753c7.087 7.144 11.467 16.983 11.467 27.845s-4.38 20.701-11.469 27.848l0.003-0.003c-7.114 7.153-16.962 11.58-27.845 11.58s-20.731-4.427-27.843-11.579l-417.755-417.755z" />
<glyph unicode="&#xe90a;" glyph-name="right_tab" d="M825.768 583.984v0l-349.879-355.642c-8.265-8.395-19.68-13.595-32.287-13.595s-24.022 5.2-32.29 13.595v0l-197.728 201.029c-8.26 8.355-13.372 19.96-13.372 32.775 0 25.63 20.442 46.372 45.617 46.372 12.607 0 24.027-5.195 32.292-13.592v0l165.48-168.17 317.637 322.864c8.265 8.355 19.68 13.552 32.285 13.552 25.17 0 45.625-20.78 45.625-46.367 0-12.817-5.115-24.424-13.38-32.821v0 0z" />
<glyph unicode="&#xe90b;" glyph-name="tab_close" d="M737.28 280.064l-114.688 114.688c-16.384 16.384-40.96 16.384-57.344 0s-16.384-40.96 0-57.344l114.688-114.688-114.688-114.688c-16.384-16.384-16.384-40.96 0-57.344s40.96-16.384 57.344 0l114.688 114.688 114.688-114.688c16.384-16.384 40.96-16.384 57.344 0s16.384 40.96 0 57.344l-114.688 114.688 114.688 114.688c16.384 16.384 16.384 40.96 0 57.344s-40.96 16.384-57.344 0l-114.688-114.688zM1024 919.040v-737.28c0-135.168-110.592-245.76-245.76-245.76h-737.28l983.040 983.040zM778.24-64h-737.28l983.040 983.040v-737.28c0-135.168-110.592-245.76-245.76-245.76zM139.264-23.040h638.976c32.768 0 61.44 8.192 90.112 20.48-16.384 4.096-32.768 12.288-45.056 24.576l-86.016 86.016-86.016-90.112c-32.768-32.768-81.92-32.768-114.688 0s-32.768 81.92 0 114.688l86.016 86.016-90.112 90.112c-12.288 12.288-20.48 24.576-20.48 40.96l-372.736-372.736zM593.92 407.040c-12.288 0-20.48-4.096-28.672-12.288-16.384-16.384-16.384-40.96 0-57.344l114.688-114.688-114.688-114.688c-16.384-16.384-16.384-40.96 0-57.344s40.96-16.384 57.344 0l114.688 114.688 114.688-114.688c16.384-16.384 40.96-16.384 57.344 0s16.384 40.96 0 57.344l-114.688 114.688 114.688 114.688c16.384 16.384 16.384 40.96 0 57.344s-40.96 16.384-57.344 0l-114.688-114.688-114.688 114.688c-8.192 8.192-20.48 12.288-28.672 12.288zM851.968 222.72l86.016-86.016c12.288-12.288 20.48-28.672 24.576-45.056 12.288 28.672 20.48 57.344 20.48 90.112v638.976l-372.736-372.736c16.384-4.096 28.672-12.288 40.96-20.48l86.016-86.016 86.016 86.016c32.768 32.768 81.92 32.768 114.688 0s32.768-81.92 0-114.688l-86.016-90.112z" />
<glyph unicode="&#xe90c;" glyph-name="crown" d="M526.336 663.040c34.816 7.168 61.44 36.864 61.44 73.728 0 41.984-33.792 75.776-75.776 75.776s-75.776-33.792-75.776-75.776c0-34.816 23.552-63.488 55.296-72.704l-184.32-323.584-205.824 180.224c18.432 11.264 30.72 30.72 30.72 53.248 0 34.816-28.672 62.464-63.488 62.464s-63.488-27.648-63.488-62.464c0-34.816 28.672-62.464 63.488-62.464 9.216 0 17.408 2.048 25.6 5.12l70.656-352.256c33.792-46.080 176.128-79.872 347.136-79.872 166.912 0 307.2 35.84 345.088 79.872l86.016 347.136-203.776-174.080-212.992 325.632zM955.392 636.416c-34.816 0-63.488-27.648-63.488-62.464s28.672-62.464 63.488-62.464c34.816 0 63.488 27.648 63.488 62.464s-28.672 62.464-63.488 62.464z" />
<glyph unicode="&#xe90d;" glyph-name="down" d="M153 665.4l351.5-351.5c1.9-1.9 4.5-3.1 7.5-3.1s5.6 1.2 7.6 3.2l351.4 351.4c13.9 13.9 36.7 13.9 50.6 0s13.9-36.7 0-50.6l-384.3-384.2c-13.9-13.9-36.7-13.9-50.6 0-0.1 0.1-0.1 0.1-0.1 0.2l-384.2 384.1c-13.9 13.9-13.9 36.7 0 50.6 13.9 13.8 36.7 13.8 50.6-0.1zM501.8 318.8c0 0.2-0.1 0.3-0.1 0.5 0-0.2 0-0.3 0.1-0.5zM502.4 317.1c0 0.1-0.1 0.1-0.1 0.2 0-0.1 0-0.1 0.1-0.2zM501.4 321.4v0z" />
<glyph unicode="&#xe90e;" glyph-name="entry_company" d="M303.443 427.787c0-49.375 40.011-89.407 89.406-89.407 49.385 0 89.407 48.587 89.407 97.972 0 49.374-40.022 80.84-89.407 80.84-49.395 0-89.406-40.020-89.406-89.405zM839.87 896.778h59.598c0-70.547-35.008-137.89-93.653-180.153-66.157-47.676-152.647-57.274-243.598-26.923-40.012 13.334-71.478 12.054-93.51-3.807-27.7-19.975-38.732-59.577-43.143-87.134h94.452c81.7 0 141.011-59.23 141.011-140.807l0.030-314.462c-0.030-81.548-59.31-140.746-140.98-140.746l-254.394-0.030c-81.752 0.030-141.063 59.26-141.032 140.776l-0.030 314.462c0 81.578 59.31 140.807 141.062 140.807h70.29c-28.048 43.49-62.339 105.503-62.339 149.003v149.014h59.597v-149.014c0-21.714 19.566-61.93 42.724-100.263 9.874 31.118 27.24 64.642 57.888 86.735 38.476 27.701 87.984 31.753 147.233 11.983 72.266-24.037 139.702-17.427 189.905 18.778 43.133 31.078 68.89 80.35 68.89 131.781zM541.853 62.333l-16.557 149.863c0 52.67-59.311 88.547-132.447 88.547s-132.446-35.877-132.446-88.547l-16.568-149.863h298.018z" />
<glyph unicode="&#xe90f;" glyph-name="girl" horiz-adv-x="1028" d="M548.841 272.64c-128.768 0-233.519 104.751-233.519 233.519s104.751 233.519 233.519 233.519c128.768 0 233.519-104.751 233.519-233.519 0.023-128.768-104.727-233.519-233.519-233.519zM548.841 669.859c-90.252 0-163.7-73.425-163.7-163.7s73.425-163.7 163.7-163.7c90.275 0 163.7 73.425 163.7 163.7 0.023 90.275-73.425 163.7-163.7 163.7zM378.779 407.918l49.368-49.368-177.233-177.233-49.368 49.368 177.233 177.233zM256.427 402.429l162.998-162.998-49.368-49.368-162.998 162.998 49.368 49.368z" />
<glyph unicode="&#xe910;" glyph-name="left" d="M379.104 450.656c4.647-3.465 7.707-5.211 10.102-7.614 111.882-111.777 223.68-223.642 335.584-335.395 11.498-11.482 17.601-24.432 14.060-40.893-6.549-30.444-42.724-43.056-66.702-23.207-2.638 2.179-5.006 4.691-7.43 7.116-122.147 122.131-244.291 244.268-366.434 366.411-22.218 22.218-22.236 44.944-0.033 67.143 122.749 122.755 245.548 245.451 368.185 368.316 12.166 12.191 26.062 17.589 42.734 13.327 28.957-7.395 40.247-42.511 21.462-65.827-2.323-2.881-5.046-5.457-7.669-8.083-111.214-111.228-222.435-222.459-333.706-333.634-2.407-2.404-5.469-4.166-10.148-7.66z" />
<glyph unicode="&#xe911;" glyph-name="man" d="M860.312 576.016c0 0 0 112.746 0 160.544-31.433-31.040-125.704-124.122-174.524-172.324 47.983-59.549 76.874-135.11 76.874-217.367 0-191.455-155.769-347.207-347.207-347.207-191.433 0-347.207 155.751-347.207 347.207s155.775 347.207 347.208 347.207c74.921 0 144.185-24.098 200.979-64.606 48.263 46.535 145.246 140.060 178.374 172.032-50.542 0-173.541 0-173.541 0v95.781h330.836v-321.268h-91.792zM164.036 346.87c0-138.634 112.802-251.425 251.42-251.425 138.623 0 251.425 112.791 251.425 251.425 0 138.641-112.802 251.425-251.425 251.425-138.618 0-251.42-112.786-251.42-251.425z" />
<glyph unicode="&#xe912;" glyph-name="me" d="M913.435 144.826c-85.435 82.754-231.201 141.624-282.504 151.893-2.743 5.624-5.278 18.623-6.234 31.546 17.112 19.159 58.521 70.89 74.051 138.056 15.834 7.44 29.18 23.551 37.454 46.128 11.675 31.735 12.557 75.469-10.089 103.809 0.047 0.443 0.094 0.885 0.139 1.324 4.279 39.76 15.67 145.358-46.521 214.642-36.944 41.151-92.789 62.030-165.955 62.030-73.121 0-128.965-20.855-165.919-62.007-62.196-69.214-50.859-174.812-46.596-214.568 0.050-0.488 0.104-0.955 0.153-1.419-22.646-28.385-21.763-72.166-10.079-103.9 8.288-22.553 21.608-38.641 37.428-46.082 15.52-67.167 56.962-118.897 74.074-138.056-0.964-12.766-3.523-25.851-6.253-31.527-52.014-10.395-201.139-70.77-286.021-155.349v-6.142h-0.001v-67.438h0.001v-37.267c0-15.88 12.872-28.751 28.75-28.751h745.37c15.879 0 28.75 12.871 28.75 28.751v65.584h0.001v48.743z" />
<glyph unicode="&#xe913;" glyph-name="notebook" d="M783.534 359.022c-11.336 0-20.558-9.22-20.558-20.558v-193.809c0-40.16-30.371-72.828-67.702-72.828h-522.457c-37.33 0-67.701 32.668-67.701 72.828v606.69c0 40.16 30.371 72.829 67.701 72.829h522.457c37.331 0 67.702-32.669 67.702-72.829v-31.873c0-11.34 9.223-20.558 20.558-20.558 11.334 0 20.558 9.219 20.558 20.558v31.873c0 62.83-48.814 113.944-108.818 113.944h-522.457c-60.004 0-108.817-51.114-108.817-113.944v-606.689c0-62.831 48.813-113.945 108.817-113.945h522.457c60.004 0 108.818 51.114 108.818 113.945v193.808c0.001 11.338-9.223 20.558-20.558 20.558zM949.827 605.848l-90.331 90.327c-6.34 6.343-15.31 9.982-24.618 9.982-9.303 0-18.274-3.638-24.6-9.982l-355.86-355.857c-0.494-0.489-0.912-0.987-0.928-1.092-3.149-2.601-5.483-6.084-6.631-10.071l-0.035-0.143-43.12-153.601-0.518-2.095 0.032-0.82c-0.093-0.77-0.146-1.662-0.146-2.567 0-0.069 0-0.137 0.001-0.206v0.010c0.004-0.843 0.040-1.806 0.205-2.979l0.471-2.602c0.413-1.454 1.015-2.634 1.143-2.795 0.391-0.913 0.792-1.681 1.245-2.413l-0.044 0.077c0.9-1.446 2.068-2.875 2.983-3.67l1.872-1.751c1.414-1.1 2.927-1.975 4.719-2.723l2.341-0.842c1.225-0.336 2.489-0.562 3.829-0.674l1.659-0.072 1.433 0.064c1.579 0.104 3.051 0.373 4.459 0.791l-0.143-0.036 156.15 45.526 2.212 0.899c0.932 0.426 1.686 0.884 2.288 1.253 0.534 0.306 1.329 0.771 1.875 1.196l0.679 0.378 357.386 357.27c13.555 13.569 13.555 35.645-0.008 49.217zM880.92 616.608l-336.868-336.872-46.039 46.040 336.873 336.863 46.034-46.031zM540.33 225.322l-42.931-12.52-31.613 31.609 12.155 43.301 62.389-62.39zM916.291 581.234l-336.869-336.864-6.295 6.296 336.863 336.873 6.301-6.305zM641.683 729.068h-413.218c-11.336 0-20.558-9.219-20.558-20.558s9.223-20.558 20.558-20.558h413.218c11.336 0 20.558 9.219 20.558 20.558s-9.222 20.558-20.558 20.558zM662.241 618.737c0 11.339-9.223 20.557-20.558 20.557h-413.218c-11.336 0-20.558-9.219-20.558-20.557 0-11.34 9.223-20.558 20.558-20.558h413.218c11.336-0.001 20.558 9.219 20.558 20.558zM458.394 549.53h-229.929c-11.336 0-20.558-9.219-20.558-20.558s9.223-20.558 20.558-20.558h229.929c11.335 0 20.557 9.219 20.557 20.558 0.002 11.338-9.222 20.558-20.557 20.558zM477.202 439.199c0 11.339-9.223 20.558-20.558 20.558h-228.179c-11.336 0-20.558-9.22-20.558-20.558 0-11.34 9.223-20.558 20.558-20.558h228.179c11.336 0 20.558 9.218 20.558 20.558zM354.126 369.983h-125.661c-11.336 0-20.558-9.219-20.558-20.557 0-11.34 9.223-20.558 20.558-20.558h125.662c11.335 0 20.558 9.219 20.558 20.558s-9.223 20.557-20.559 20.557zM228.465 239.102h118.337c11.335 0 20.558 9.219 20.558 20.558s-9.223 20.558-20.558 20.558h-118.337c-11.336 0-20.558-9.219-20.558-20.558s9.223-20.558 20.558-20.558zM228.465 149.329h121.019c11.335 0 20.558 9.219 20.558 20.558s-9.223 20.558-20.558 20.558h-121.019c-11.336 0-20.558-9.22-20.558-20.558 0-11.34 9.223-20.558 20.558-20.558z" />
<glyph unicode="&#xe914;" glyph-name="praise" d="M930.381 548.111c-17.915 23.772-44.892 37.412-74.010 37.412h-198.661c6.769 14.889 10.854 29.752 11.781 38.139l3.087 12.943c13.885 55.46 11.52 113.838-6.958 169.231l-6.093 16.922c-12.488 37.473-48.799 63.657-88.3 63.657h-2.452c-51.502 0-96.686-43.74-96.686-93.614v-24.090c0-104.806-69.734-186.424-166.968-201.958v-523.515h449.987c42.117 0 79.421 28.913 90.655 70.098l100.444 350.781c8.192 28.549 2.284 59.94-15.826 83.994zM257.162 564.029h-77.967c-50.068 0-93.972-46.792-93.972-100.132v-326.676c0-51.82 42.158-93.988 93.972-93.988h77.967v520.796z" />
<glyph unicode="&#xe915;" glyph-name="right" d="M798.744 481.28l-512.299 466.773c-7.823 7.72-18.576 12.488-30.443 12.488s-22.619-4.768-30.447-12.493l0.005 0.005c-7.764-7.748-12.567-18.46-12.567-30.293s4.803-22.546 12.567-30.293l0.001-0.001 481.408-438.613-481.408-439.040c-7.774-7.743-12.585-18.456-12.585-30.293s4.811-22.551 12.584-30.292l0.001-0.001c16.853-16.64 44.075-16.64 60.885 0l512.299 466.773c8.96 8.96 12.8 20.907 12.203 32.853 0.049 0.766 0.077 1.661 0.077 2.563 0 11.646-4.69 22.197-12.284 29.868l0.003-0.003z" />
<glyph unicode="&#xe916;" glyph-name="search" d="M621.664 306.336c-44.48-31.68-98.88-50.336-157.664-50.336-150.208 0-272 121.792-272 272s121.792 272 272 272c150.208 0 272-121.792 272-272 0-75.104-30.432-143.104-79.68-192.32l191.904-191.904c8.8-8.8 8.576-22.912-0.256-31.744-8.896-8.896-23.040-8.96-31.744-0.256l-194.592 194.592zM464 288c132.544 0 240 107.456 240 240s-107.456 240-240 240c-132.544 0-240-107.456-240-240s107.456-240 240-240v0z" />
<glyph unicode="&#xe917;" glyph-name="speak" d="M362.9 746.1c0 82.4 66.9 149.2 149.1 149.2 82.3 0 149.1-66.9 149.1-149.2v-275.1c0-82.4-66.9-149.2-149.1-149.2-82.3 0-149.1 66.9-149.1 149.2v275.1zM546.4 92.5v88.2c135.2 16.9 239.9 132.3 239.9 272.2v86.9c0 15.8-12.8 28.7-28.7 28.7-15.8 0-28.7-12.8-28.7-28.7v-86.9c0-119.8-97.1-217-216.9-217s-216.9 97.2-216.9 217v86.9c0 15.8-12.8 28.7-28.7 28.7-15.8 0-28.7-12.8-28.7-28.7v-86.9c0-139.8 104.6-255.2 239.9-272.2v-88.2h-91.9c-25.2 0-45.7-20.5-45.7-45.9 0-25.5 20.5-45.9 45.7-45.9h252.7c25.2 0 45.7 20.5 45.7 45.9 0 25.5-20.5 45.9-45.7 45.9h-92z" />
<glyph unicode="&#xe918;" glyph-name="three_rollers" d="M738.043 716.932v0 0zM946.763 845.994c-8.99 9.48-19.978 14.225-32.962 14.225h-807.205c-7.297 0-11.572-1.499-15.557-4.495-4.704-2.334-9.026-5.578-12.962-9.731-8.988-9.482-13.481-21.073-13.481-34.767v-38.63c0-13.698 4.493-25.421 13.481-35.167 3.938-4.268 8.259-7.6 12.964-9.999 3.985-3.077 8.259-4.616 15.555-4.616h807.206c12.984 0 23.972 4.873 32.962 14.616 8.988 9.746 13.481 21.469 13.481 35.167v38.63c-0.001 13.693-4.494 25.285-13.482 34.767zM946.763 158.959c-8.99 9.48-19.978 14.225-32.962 14.225h-807.205c-7.297 0-11.572-1.499-15.557-4.495-4.704-2.334-9.026-5.578-12.962-9.731-8.988-9.482-13.481-21.073-13.481-34.767v-38.63c0-13.698 4.493-25.421 13.481-35.167 3.938-4.268 8.259-7.6 12.964-9.999 3.985-3.077 8.259-4.616 15.555-4.616h807.206c12.984 0 23.972 4.873 32.962 14.616 8.988 9.746 13.481 21.469 13.481 35.167v38.63c-0.001 13.694-4.494 25.285-13.482 34.767zM946.763 502.477c-8.99 9.48-19.978 14.225-32.962 14.225h-807.205c-7.297 0-11.572-1.499-15.557-4.495-4.704-2.334-9.026-5.578-12.962-9.731-8.988-9.482-13.481-21.073-13.481-34.767v-38.63c0-13.698 4.493-25.421 13.481-35.167 3.938-4.268 8.259-7.6 12.964-9.999 3.985-3.077 8.259-4.616 15.555-4.616h807.206c12.984 0 23.972 4.873 32.962 14.616 8.988 9.746 13.481 21.469 13.481 35.167v38.63c-0.001 13.694-4.494 25.285-13.482 34.767z" />
<glyph unicode="&#xe919;" glyph-name="up" d="M534.4 662.4l384-384c12.8-12.8 12.8-31.999 0-44.799s-31.999-12.8-44.799 0l-361.6 361.6-361.6-361.6c-12.8-12.8-31.999-12.8-44.799 0s-12.8 31.999 0 44.799l384 384c6.4 6.4 16 9.6 22.4 9.6 9.6 0 16-3.2 22.4-9.6z" />
<glyph unicode="&#xe91a;" glyph-name="word" d="M696.203 149.044c-3.123 0.018-6.087-0.496-8.684-1.561h-0.085c-2.077-0.859-4.060-2.245-5.779-4.133l-127.562-140.087c-1.41-1.542-2.898-3.038-4.393-4.375-11.837-10.583-27.236-15.951-42.466-15.969-15.303-0.018-30.721 5.301-42.575 16.073l-0.17 0.176c-1.204 1.113-2.578 2.516-4.15 4.272l-123.447 137.819c-1.458 1.628-3.328 2.832-5.423 3.618-3.019 1.149-6.486 1.748-10.069 1.906h-0.085c-33.481 1.609-57.479 1.712-83.161 1.797h-0.085c-32.827 0.121-68.437 0.278-125.899 3.244v-0.036c-31.302 0-59.828 12.883-80.497 33.535l-0.054-0.049c-20.646 20.652-33.481 49.175-33.481 80.545v507.495c0 31.283 12.847 59.808 33.481 80.462l0.054 0.036 0.036 0.049c20.652 20.634 49.175 33.481 80.462 33.481h795.779c31.369 0 59.893-12.829 80.545-33.481l-0.049-0.049c20.646-20.671 33.53-49.196 33.53-80.497v-507.495c0-31.369-12.829-59.893-33.481-80.545s-49.175-33.486-80.545-33.486v0.071c-50.932-0.999-94.651-1.7-129.281-2.16-42.433-0.569-70.958-0.756-82.467-0.654v0zM771.466 544.462c-24.065 0-43.568-19.503-43.568-43.568s19.502-43.568 43.568-43.568 43.568 19.503 43.568 43.568-19.502 43.568-43.568 43.568v0zM510.060 544.462c-24.065 0-43.568-19.503-43.568-43.568s19.503-43.568 43.568-43.568 43.568 19.503 43.568 43.568-19.503 43.568-43.568 43.568v0zM248.656 544.462c-24.065 0-43.568-19.503-43.568-43.568s19.503-43.568 43.568-43.568 43.568 19.503 43.568 43.568-19.503 43.568-43.568 43.568v0zM670.867 187.619l-0.018 0.036c7.946 3.292 16.671 4.852 25.698 4.781 11.212-0.085 39.417 0.102 81.611 0.653 34.098 0.448 77.721 1.167 129.366 2.179l0.43 0.085c19.344 0 36.96 7.946 49.74 20.724 12.78 12.773 20.719 30.394 20.719 49.74v507.497c0 19.399-7.908 37.033-20.634 49.74h-0.085c-12.78 12.78-30.394 20.719-49.74 20.719h-795.778c-19.399 0-37.033-7.903-49.746-20.634l-0.085-0.085c-12.726-12.707-20.634-30.34-20.634-49.74v-507.495c0-19.344 7.946-36.966 20.719-49.74v-0.091c12.713-12.726 30.346-20.634 49.746-20.634l1.095-0.085c58.338-3.038 92.986-3.189 124.889-3.292h0.091c26.758-0.102 51.778-0.206 85.126-1.804 8.162-0.394 16.175-1.779 23.569-4.61 8.35-3.189 15.998-8.133 22.467-15.388l-0.049-0.036 123.327-137.782 1.234-1.187c3.564-3.244 8.435-4.852 13.312-4.852 4.956 0 9.911 1.683 13.549 4.918l1.269 1.252-0.054 0.036 127.477 140.087c6.105 6.686 13.33 11.659 21.389 15.005z" />
<glyph unicode="&#xe91b;" glyph-name="write" d="M717.024 620.578l-117.943 117.426-353.837-352.278 117.944-117.422zM834.974 738.004c16.28 16.21 16.28 42.496 0 58.711l-58.977 58.71c-16.285 16.21-42.688 16.21-58.973 0l-88.455-88.070 117.945-117.422 88.46 88.071zM215.521 356.396l-39.257-156.533 157.226 39.093zM916.424 114.056h-809.956c-23.136 0-41.894-18.715-41.894-41.792 0-23.083 18.758-41.8 41.894-41.8h809.955c23.135 0 41.894 18.717 41.894 41.8 0 23.077-18.758 41.792-41.893 41.792z" />
<glyph unicode="&#xe91c;" glyph-name="miaojie_seller_selected" d="M34.172 11.13l890.418 4.906v881.591l-890.418-886.496zM605.462 137.086l-124.579 123.516 22.61 22.693 101.229-101.202 213.855 213.876 22.61-22.765-235.724-236.118z" />
<glyph unicode="&#xe91d;" glyph-name="omit" d="M147.012 529.109c-44.791 0-81.108-36.304-81.108-81.109 0-44.779 36.316-81.108 81.108-81.108s81.109 36.329 81.109 81.108c0 44.805-36.316 81.109-81.109 81.109zM511.999 529.109c-44.791 0-81.108-36.304-81.108-81.109 0-44.779 36.316-81.108 81.108-81.108s81.109 36.329 81.109 81.108c0 44.805-36.317 81.109-81.109 81.109zM876.987 529.109c-44.791 0-81.108-36.304-81.108-81.109 0-44.779 36.316-81.108 81.108-81.108s81.108 36.329 81.108 81.108c-0.001 44.805-36.317 81.109-81.108 81.109z" />
<glyph unicode="&#xe91e;" glyph-name="five_star" d="M957.111 556.52c-3.927 11.67-14.447 19.864-26.724 20.816l-282.707 21.915-107.497 276.623c-4.586 11.804-15.951 19.58-28.615 19.58s-24.027-7.776-28.615-19.58l-107.495-276.623-282.709-21.915c-12.277-0.952-22.796-9.146-26.724-20.816s-0.501-24.557 8.701-32.738l217.548-193.359-67.98-291.298c-2.849-12.207 2.010-24.92 12.274-32.114 10.265-7.196 23.873-7.428 34.376-0.586l240.624 156.709 240.625-156.709c5.099-3.321 10.929-4.974 16.753-4.974 6.174 0 12.342 1.858 17.623 5.562 10.264 7.195 15.122 19.907 12.274 32.114l-67.98 291.299 217.547 193.357c9.204 8.18 12.628 21.068 8.701 32.738z" />
<glyph unicode="&#xe91f;" glyph-name="five_star_full" d="M959.008 553.984l-308 47.008-139.008 295.008-139.008-295.008-308-47.008 223.008-228-52.992-324 276.992 152.992 276.992-152.992-52.992 324zM512 220l-208-116.992 40 235.008-179.008 182.016 242.016 32 104.992 224 104-224 240.992-34.016-176.992-180.992 36.992-235.008z" />
<glyph unicode="&#xe920;" glyph-name="vote" d="M975.36 158.72c0 10.24-10.24 20.48-20.48 20.48h-386.56l320 320c15.36 15.36 15.36 43.52 0 58.88l-284.16 281.6c-15.36 15.36-43.52 15.36-58.88 0l-376.32-376.32c-15.36-15.36-15.36-43.52 0-58.88l225.28-222.72h-322.56c-10.24 0-20.48-10.24-20.48-20.48l-40.96-79.36c0-10.24 10.24-20.48 20.48-20.48h965.12c10.24 0 20.48 10.24 20.48 20.48l-40.96 76.8zM435.2 494.080l66.56-71.68 135.68 138.24 20.48-23.040-156.16-158.72-89.6 92.16 23.040 23.040zM289.28 97.28l20.48 33.28h407.040l20.48-33.28h-448z" />
<glyph unicode="&#xe921;" glyph-name="circle" d="M512.502-61.436c-68.506 0-134.988 13.433-197.598 39.925-60.456 25.581-114.752 62.192-161.378 108.819s-83.24 100.922-108.82 161.377c-26.492 62.611-39.925 129.092-39.925 197.598s13.433 134.988 39.925 197.598c25.581 60.456 62.192 114.752 108.819 161.378s100.923 83.239 161.378 108.819c62.611 26.493 129.093 39.926 197.599 39.926s134.988-13.433 197.598-39.925c60.456-25.581 114.753-62.193 161.378-108.819 46.626-46.627 83.239-100.923 108.819-161.378 26.492-62.611 39.925-129.092 39.925-197.598s-13.433-134.988-39.925-197.598c-25.581-60.456-62.192-114.752-108.819-161.378s-100.923-83.239-161.378-108.819c-62.61-26.492-129.092-39.925-197.598-39.925zM512.502 902.842c-251.747 0-456.556-204.811-456.556-456.556s204.811-456.556 456.556-456.556c251.746 0 456.555 204.811 456.555 456.556s-204.81 456.556-456.555 456.556z" />
<glyph unicode="&#xe922;" glyph-name="check-circle" d="M512-64c-283.733 0-512 228.267-512 512s228.267 512 512 512 512-228.267 512-512c0-283.733-228.267-512-512-512zM768 618.667c-12.8 0-23.467-4.267-29.867-12.8l-311.467-311.467-140.8 140.8c-6.4 8.533-17.067 12.8-29.867 12.8-23.467 0-42.667-19.2-42.667-42.667 0-12.8 4.267-23.467 12.8-29.867l170.667-170.667c8.533-8.533 19.2-12.8 29.867-12.8s23.467 4.267 29.867 12.8l341.333 341.333c8.533 8.533 12.8 19.2 12.8 29.867 0 23.467-19.2 42.667-42.667 42.667z" />
<glyph unicode="&#xe923;" glyph-name="music" d="M1024 448c0 282.764-229.236 512-512 512s-512-229.236-512-512c0-282.764 229.236-512 512-512s512 229.236 512 512zM46.545 448c0 257.071 208.384 465.455 465.455 465.455s465.455-208.384 465.455-465.455-208.384-465.455-465.455-465.455c-257.071 0-465.455 208.384-465.455 465.455zM536.111 263.354c0.977 3.863 1.443 10.985 1.443 21.411v18.479l-0.372 321.024c17.408-11.59 40.867-22.249 70.377-31.93 28.998-9.914 43.52-22.714 43.52-38.447 0-10.147-5.679-22.388-17.036-36.631l9.076-14.895c29.975 29.277 44.963 54.784 44.963 76.521 0 33.373-31.791 59.625-95.418 78.708-18.618 5.818-31.279 11.59-37.888 17.408-6.656 5.818-12.753 16.198-18.339 31.185l-22.109-1.071v-406.993c-24.902 21.504-50.641 32.303-77.265 32.303-29.51 0-54.831-5.818-76.009-17.408s-31.744-25.647-31.744-42.077c0-39.191 33.745-58.787 101.19-58.787 29.743 0 53.853 4.887 72.378 14.708 18.572 9.821 29.603 21.969 33.233 36.492z" />
<glyph unicode="&#xe924;" glyph-name="star_gray" d="M956.742 540.115c-5.241 16.201-19.179 28.055-36.035 30.497l-254.931 44.791-114.003 229.438c-7.445 15.248-22.993 24.898-40.026 24.898-17.036 0-32.523-9.649-40.146-24.898l-113.945-229.438-254.871-46.339c-16.857-2.443-30.853-14.296-36.036-30.497-5.301-16.142-0.893-33.951 11.318-45.804l184.408-170.41-48.186-247.663c-2.859-16.737 3.931-33.834 17.81-43.721 13.245-13.245 40.563-6.908 47.054-3.514l232.595 113.646 231.106-113.646c6.491-3.394 32.167-11.373 47.053 3.514 13.76 9.887 20.787 26.983 17.87 43.721l-46.698 247.663 184.467 172.019c12.152 11.793 16.499 29.602 11.197 45.744z" />
<glyph unicode="&#xe925;" glyph-name="star_xx" d="M876.8 300.8l-256 147.2 256 147.2c25.6 12.8 38.4 51.2 19.2 76.8-12.8 25.6-51.2 38.4-76.8 19.2l-256-147.2v294.4c6.4 32-19.2 57.6-51.2 57.6s-57.6-25.6-57.6-57.6v-294.4l-256 147.2c-19.2 19.2-57.6 6.4-70.4-19.2s-6.4-64 19.2-76.8l256-147.2-256-147.2c-25.6-12.8-38.4-51.2-19.2-76.8 12.8-19.2 32-25.6 51.2-25.6 6.4 0 19.2 0 25.6 6.4l256 147.2v-294.4c-6.4-32 19.2-57.6 51.2-57.6s57.6 25.6 57.6 57.6v294.4l256-147.2c6.4-6.4 19.2-6.4 25.6-6.4 19.2 0 38.4 12.8 51.2 25.6 6.4 25.6 0 64-25.6 76.8z" />
<glyph unicode="&#xe926;" glyph-name="bar" horiz-adv-x="1490" d="M1144.698 128.006v575.991c0 17.681-14.325 32.005-31.999 32.005h-160c-17.674 0-31.992-14.325-31.992-32.005v-575.991c0-17.687 14.318-32.005 31.992-32.005h160c17.674 0 31.999 14.318 31.999 32.005zM648.704 96h176c17.674 0 31.999 14.318 31.999 32.005v639.995c0 17.681-14.325 31.999-31.999 31.999h-176c-17.681 0-32.005-14.318-32.005-31.999v-639.995c0-17.687 14.318-32.005 32.005-32.005zM376.695 544.003c-17.681 0-31.999-14.318-31.999-31.999v-383.992c0-17.687 14.318-32.005 31.999-32.005h160c17.681 0 31.999 14.318 31.999 32.005v383.992c0 17.681-14.318 31.999-31.999 31.999h-160z" />
<glyph unicode="&#xe927;" glyph-name="del" d="M911.515 812.606h-162.909v46.545c0 31.030-15.515 54.303-38.788 77.576-15.515 15.515-46.545 23.273-77.576 23.273h-240.485c-31.030 0-62.061-7.758-77.576-23.273-31.030-23.273-38.788-46.545-46.545-85.333v-46.545h-155.152v-77.576h38.788v-605.091c0-100.848 85.333-186.182 186.182-186.182h349.091c100.848 0 186.182 85.333 186.182 186.182v612.848h38.788v77.576zM345.212 851.394c0 7.758 7.758 15.515 7.758 23.273s23.273 7.758 31.030 7.758h248.242c15.515 0 23.273 0 31.030-7.758s7.758-15.515 7.758-23.273v-46.545h-325.818v46.545zM795.152 122.182c0-62.061-46.545-108.606-108.606-108.606h-349.091c-62.061 0-108.606 54.303-108.606 108.606v612.848h566.303v-612.848zM345.212 595.394h77.576v-449.939h-77.576zM593.455 595.394h77.576v-449.939h-77.576z" />
</font>
</defs>
</svg>
